#!OML:ASF X:\für Bonn\!DataBase\2005_08_10_Bjorn_Final\c3d\bjorn.ASF
:FULLY-SPECIFIED
:DEGREES
76
root -28.4048 18.8135 -22.513 -1433.82 -14.5932 2.0705
lowerback -5.15712 0.655165 -4.52228
upperback 8.90802 1.74134 -3.54381
thorax 12.5518 0.605501 -1.0631
lowerneck -0.385613 2.10732 -0.401784
upperneck 8.10887 2.79491 0.228382
head 2.61659 1.37454 0.207258
rclavicle -4.37326e-015 2.54444e-014
rhumerus -32.8819 -19.8776 -88.5292
rradius 22.937
rwrist 11.6253
rhand -12.7774 15.7089
rfingers 7.12502
rthumb 13.3078 -13.8462
lclavicle -4.37326e-015 2.54444e-014
lhumerus -32.8723 -26.2042 94.7119
lradius 56.0729
lwrist 11.6204
lhand -34.2189 -18.1825
lfingers 7.12502
lthumb -7.39082 11.6684
rfemur -19.9684 -0.942117 12.8493
rtibia 48.9186
rfoot -18.2741 19.8903
rtoes -8.18003
lfemur -9.30282 2.40546 -25.5192
ltibia 32.1921
lfoot -24.8161 -12.5008
ltoes 5.28872
77
root -28.3983 18.7948 -22.45 -1433.89 -14.529 2.14605
lowerback -4.99235 0.617038 -4.59439
upperback 8.99077 1.69272 -3.5765
thorax 12.547 0.576804 -1.06917
lowerneck -0.466845 2.29111 -0.335455
upperneck 7.79559 3.04734 0.109026
head 2.52906 1.49952 0.162292
rclavicle -1.47101e-014 5.48646e-014
rhumerus -33.1683 -20.2751 -88.1975
rradius 22.6594
rwrist 12.1271
rhand -12.4843 15.4976
rfingers 7.12502
rthumb 13.5903 -14.0388
lclavicle -1.47101e-014 5.48646e-014
lhumerus -32.4751 -26.1946 94.6255
lradius 56.808
lwrist 11.6741
lhand -34.5832 -18.7162
lfingers 7.12502
lthumb -7.74247 11.1221
rfemur -20.6017 -0.815818 12.613
rtibia 50.3713
rfoot -18.2918 19.9612
rtoes -10.0214
lfemur -9.02059 1.58192 -25.7883
ltibia 32.2438
lfoot -25.023 -11.6937
ltoes 5.14334
78
root -28.3918 18.7732 -22.385 -1433.96 -14.4335 2.20002
lowerback -4.82084 0.582324 -4.62981
upperback 9.06858 1.6446 -3.61712
thorax 12.5332 0.552504 -1.10398
lowerneck -0.480416 2.45236 -0.160965
upperneck 7.44442 3.27285 -0.121525
head 2.42164 1.61137 0.0620079
rclavicle -1.07344e-014 2.70347e-014
rhumerus -33.4936 -20.617 -87.9069
rradius 22.4141
rwrist 12.5637
rhand -12.1902 15.4134
rfingers 7.12502
rthumb 13.8737 -14.1038
lclavicle -1.07344e-014 2.70347e-014
lhumerus -32.1045 -26.2339 94.517
lradius 57.6538
lwrist 11.7733
lhand -34.9178 -19.1905
lfingers 7.12502
lthumb -8.06544 10.6356
rfemur -21.2658 -0.751307 12.3979
rtibia 51.8494
rfoot -18.2719 20.0759
rtoes -11.8866
lfemur -8.76034 0.844902 -26.0247
ltibia 32.34
lfoot -25.1842 -10.9857
ltoes 5.07689
79
root -28.3856 18.7461 -22.3207 -1434.03 -14.3371 2.27969
lowerback -4.6518 0.527392 -4.71293
upperback 9.14861 1.57253 -3.63993
thorax 12.5225 0.510974 -1.09632
lowerneck -0.407084 2.61582 -0.0455421
upperneck 6.99761 3.50347 -0.391893
head 2.26845 1.72389 -0.0426544
rclavicle 3.97569e-015 6.04305e-014
rhumerus -33.7983 -20.896 -87.5852
rradius 22.1703
rwrist 13.0321
rhand -11.9614 15.3772
rfingers 7.12502
rthumb 14.0942 -14.1248
lclavicle 3.97569e-015 6.04305e-014
lhumerus -31.6815 -26.0976 94.4101
lradius 58.5535
lwrist 11.6816
lhand -35.2314 -19.6167
lfingers 7.12502
lthumb -8.36808 10.1975
rfemur -21.9863 -0.708005 12.1632
rtibia 53.3355
rfoot -18.1336 20.1702
rtoes -13.8608
lfemur -8.54067 0.213543 -26.2849
ltibia 32.4907
lfoot -25.3903 -10.283
ltoes 4.66667
80
root -28.3799 18.7158 -22.2548 -1434.08 -14.2291 2.33687
lowerback -4.48335 0.486095 -4.76014
upperback 9.2229 1.51538 -3.66999
thorax 12.5062 0.480589 -1.11393
lowerneck -0.233033 2.76563 0.136725
upperneck 6.45149 3.71383 -0.699427
head 2.06924 1.82838 -0.172719
rclavicle -1.90833e-014 -9.54166e-015
rhumerus -34.1668 -21.073 -87.3298
rradius 22.0232
rwrist 13.3661
rhand -11.7477 15.3178
rfingers 7.12502
rthumb 14.3001 -14.1697
lclavicle -1.90833e-014 -9.54166e-015
lhumerus -31.2561 -26.0362 94.2779
lradius 59.5455
lwrist 11.5977
lhand -35.504 -19.9164
lfingers 7.12502
lthumb -8.63116 9.88712
rfemur -22.7423 -0.689226 11.956
rtibia 54.7987
rfoot -17.97 20.2998
rtoes -15.5106
lfemur -8.36694 -0.476835 -26.5393
ltibia 32.717
lfoot -25.6427 -9.47718
ltoes 3.94345
81
root -28.3739 18.6859 -22.1872 -1434.08 -14.085 2.38008
lowerback -4.36361 0.435076 -4.77902
upperback 9.30638 1.44691 -3.70335
thorax 12.5317 0.447134 -1.15266
lowerneck -0.0813908 2.92429 0.358659
upperneck 5.87797 3.93448 -1.02986
head 1.86997 1.93916 -0.315839
rclavicle 1.59028e-015 0
rhumerus -34.548 -21.2451 -87.0776
rradius 21.9241
rwrist 13.7504
rhand -11.5574 15.3642
rfingers 7.12502
rthumb 14.4835 -14.1103
lclavicle 1.59028e-015 0
lhumerus -30.7702 -25.9196 94.1005
lradius 60.6118
lwrist 11.3894
lhand -35.7274 -20.0247
lfingers 7.12502
lthumb -8.84677 9.76991
rfemur -23.5793 -0.725624 11.7621
rtibia 56.2605
rfoot -18.0051 20.3776
rtoes -17.1878
lfemur -8.24167 -1.23025 -26.7815
ltibia 32.9857
lfoot -25.9126 -8.66859
ltoes 3.4867
82
root -28.3689 18.6515 -22.1179 -1434.11 -13.9491 2.29651
lowerback -4.19083 0.385828 -4.67841
upperback 9.40224 1.36116 -3.70261
thorax 12.5386 0.414912 -1.22323
lowerneck 0.0321164 3.12027 0.543463
upperneck 5.33713 4.20069 -1.29337
head 1.68926 2.07348 -0.430167
rclavicle -3.57812e-014 1.43125e-014
rhumerus -34.9484 -21.0847 -86.9695
rradius 21.9229
rwrist 13.7925
rhand -11.4248 15.3342
rfingers 7.12502
rthumb 14.6112 -14.1311
lclavicle -3.57812e-014 1.43125e-014
lhumerus -30.2677 -25.7534 93.9075
lradius 61.7542
lwrist 11.11
lhand -35.8719 -19.8964
lfingers 7.12502
lthumb -8.98622 9.89222
rfemur -24.3719 -0.726413 11.7136
rtibia 57.7098
rfoot -18.0348 20.4002
rtoes -18.3677
lfemur -8.07271 -1.88804 -26.8879
ltibia 33.3001
lfoot -26.2273 -7.81254
ltoes 2.49127
83
root -28.3642 18.6134 -22.0481 -1434.23 -13.787 2.33864
lowerback -3.92823 0.34289 -4.70699
upperback 9.50833 1.29352 -3.72819
thorax 12.5011 0.380961 -1.24796
lowerneck 0.20327 3.30742 0.78378
upperneck 4.72134 4.45438 -1.60763
head 1.48044 2.20284 -0.571364
rclavicle 1.43125e-014 1.66979e-014
rhumerus -35.3846 -20.7414 -86.9397
rradius 22.0162
rwrist 13.6284
rhand -11.306 15.3081
rfingers 7.12502
rthumb 14.7257 -14.1489
lclavicle 1.43125e-014 1.66979e-014
lhumerus -29.7831 -25.6377 93.7249
lradius 62.9781
lwrist 10.8231
lhand -35.9694 -19.5757
lfingers 7.12502
lthumb -9.08031 10.2088
rfemur -25.1247 -0.765679 11.5223
rtibia 59.1548
rfoot -18.0733 20.4673
rtoes -19.1382
lfemur -7.83994 -2.59919 -27.1407
ltibia 33.6351
lfoot -26.5295 -6.96679
ltoes 1.83813
84
root -28.3607 18.5742 -21.9762 -1434.33 -13.6301 2.29278
lowerback -3.66609 0.298787 -4.65314
upperback 9.62508 1.21456 -3.734
thorax 12.4764 0.348044 -1.29844
lowerneck 0.357864 3.50542 1.00093
upperneck 4.07513 4.71941 -1.88548
head 1.26708 2.33867 -0.697705
rclavicle 2.5842e-014 4.53229e-014
rhumerus -35.7972 -20.2484 -86.9982
rradius 22.165
rwrist 13.3756
rhand -11.2078 15.2152
rfingers 7.12502
rthumb 14.8203 -14.2348
lclavicle 2.5842e-014 4.53229e-014
lhumerus -29.2601 -25.4873 93.5462
lradius 64.2707
lwrist 10.435
lhand -36.3101 -19.4891
lfingers 7.12502
lthumb -9.409 10.2809
rfemur -25.9095 -0.80007 11.4243
rtibia 60.5828
rfoot -18.0864 20.5113
rtoes -19.7795
lfemur -7.61438 -3.27672 -27.3086
ltibia 33.9957
lfoot -26.8395 -6.09412
ltoes 1.1605
85
root -28.358 18.5329 -21.9032 -1434.43 -13.4384 2.25134
lowerback -3.38109 0.252519 -4.60368
upperback 9.73632 1.13118 -3.73805
thorax 12.4309 0.312751 -1.34446
lowerneck 0.503597 3.7104 1.26076
upperneck 3.42914 4.99291 -2.19155
head 1.06099 2.47936 -0.840551
rclavicle -6.75868e-015 1.35174e-014
rhumerus -36.2096 -19.6264 -87.1313
rradius 22.3467
rwrist 12.9525
rhand -11.1355 15.1203
rfingers 7.12502
rthumb 14.89 -14.3246
lclavicle -6.75868e-015 1.35174e-014
lhumerus -28.7583 -25.3709 93.3565
lradius 65.6685
lwrist 10.0019
lhand -36.7424 -19.8915
lfingers 7.12502
lthumb -9.82616 9.85925
rfemur -26.715 -0.861318 11.3257
rtibia 61.9826
rfoot -18.0926 20.5207
rtoes -20.1844
lfemur -7.35778 -4.05014 -27.4947
ltibia 34.3508
lfoot -27.1467 -5.167
ltoes 0.512614
86
root -28.356 18.4899 -21.8281 -1434.52 -13.2578 2.20669
lowerback -3.09482 0.216183 -4.52933
upperback 9.85219 1.06178 -3.76672
thorax 12.3908 0.288018 -1.42897
lowerneck 0.637734 3.90212 1.6007
upperneck 2.76213 5.24787 -2.54058
head 0.856852 2.61172 -1.01178
rclavicle 2.98177e-014 -6.36111e-015
rhumerus -36.596 -18.9938 -87.345
rradius 22.5398
rwrist 12.4612
rhand -11.1239 14.9924
rfingers 7.12502
rthumb 14.9011 -14.4516
lclavicle 2.98177e-014 -6.36111e-015
lhumerus -28.2411 -25.3066 93.1427
lradius 67.166
lwrist 9.49789
lhand -37.1114 -20.0224
lfingers 7.12502
lthumb -10.1821 9.71124
rfemur -27.5622 -0.923783 11.2317
rtibia 63.3521
rfoot -18.1259 20.4721
rtoes -20.6647
lfemur -7.08509 -4.94173 -27.7131
ltibia 34.6956
lfoot -27.4597 -4.12717
ltoes -0.155589
